<?xml version="1.0" encoding="UTF-8"?>
<svg width="644px" height="107px" viewBox="0 0 644 107" version="1.1" xmlns="http://www.w3.org/2000/svg" xmlns:xlink="http://www.w3.org/1999/xlink">
    <!-- Generator: Sketch 52.2 (67145) - http://www.bohemiancoding.com/sketch -->
    <title>Group 23</title>
    <desc>Created with Sketch.</desc>
    <defs>
        <polygon id="path-1" points="0 0.397275961 106.694506 0.397275961 106.694506 106.608483 0 106.608483"></polygon>
    </defs>
    <g id="Page-1" stroke="none" stroke-width="1" fill="none" fill-rule="evenodd">
        <g id="Artboard" transform="translate(-9.000000, -11.000000)">
            <g id="Group-23" transform="translate(9.000000, 10.000000)">
                <g id="Group-22">
                    <path d="M172.663807,21.5074598 C172.663807,15.7274729 177.116666,11.6827665 183.311948,11.6827665 C189.50723,11.6827665 193.960089,15.7274729 193.960089,21.5074598 C193.960089,27.2874467 189.50723,31.1407714 183.311948,31.1407714 C177.116666,31.1407714 172.663807,27.2874467 172.663807,21.5074598 M153.595244,100.689427 L158.337216,88.9380717 C162.404161,90.6720678 165.211398,91.0561158 167.728232,91.0561158 C173.63182,91.0561158 175.567845,88.5527393 175.567845,82.0020874 L175.567845,50.5987762 L157.176892,50.5987762 L157.176892,37.6914232 L192.216376,37.6914232 L192.216376,81.4240887 C192.216376,93.1767288 187.183999,103.964753 168.888557,103.964753 C162.596473,103.964753 157.85321,102.61609 153.595244,100.689427" id="Fill-1" fill="#1A1A1A"></path>
                    <path d="M238.610909,61.7729039 C238.610909,54.4515871 236.287678,49.8275975 230.674494,49.8275975 C225.060019,49.8275975 222.736788,54.4515871 222.736788,61.7729039 C222.736788,69.0942206 225.060019,73.7182102 230.674494,73.7182102 C236.287678,73.7182102 238.610909,69.0942206 238.610909,61.7729039 M205.699762,61.7729039 C205.699762,45.7828911 217.895433,36.534912 230.674494,36.534912 C243.450973,36.534912 255.646644,45.7828911 255.646644,61.7729039 C255.646644,77.7629166 243.450973,87.0108957 230.674494,87.0108957 C217.895433,87.0108957 205.699762,77.7629166 205.699762,61.7729039" id="Fill-3" fill="#1A1A1A"></path>
                    <path d="M296.684065,61.1946483 C296.684065,53.2966172 294.264033,50.0212913 289.52077,50.0212913 C286.908426,50.0212913 284.875599,50.9846225 282.552368,53.487999 L282.552368,71.2132923 C284.585195,72.9460039 286.908426,73.5252871 289.134855,73.5252871 C293.200509,73.5252871 296.684065,70.4426274 296.684065,61.1946483 M280.616342,80.6526532 L280.229137,80.6526532 L278.873919,85.8546414 L265.902547,85.8546414 L265.902547,18.8106463 L282.552368,18.8106463 L282.552368,34.4153266 L281.972851,41.3513109 L282.357475,41.3513109 C285.650009,38.2686512 290.102868,36.5346552 294.457635,36.5346552 C306.170591,36.5346552 313.721091,46.1679667 313.721091,60.9056489 C313.721091,77.5712779 303.653757,87.0119232 293.103708,87.0119232 C288.74765,87.0119232 284.392883,84.8913102 280.616342,80.6526532" id="Fill-5" fill="#1A1A1A"></path>
                    <path d="M322.234312,79.6898358 L329.204005,69.47981 C335.302486,73.0428508 341.981775,74.87318 348.177057,74.87318 C352.435023,74.87318 354.177446,73.7184671 354.177446,71.9831865 C354.177446,69.6711918 351.660612,69.2858593 343.529304,67.5531477 C330.172018,64.6631542 325.331953,59.6525478 325.331953,52.1398492 C325.331953,42.6992039 334.334473,36.5338845 348.370659,36.5338845 C357.46998,36.5338845 364.728786,40.0994942 369.859254,43.2772026 L362.502356,53.1031803 C357.46998,50.2131869 351.854215,48.6731415 346.821839,48.6731415 C343.722907,48.6731415 341.786881,49.6364726 341.786881,51.3691843 C341.786881,53.4885128 344.305005,53.681179 351.854215,55.4151751 C366.374408,58.690501 370.633664,63.0242068 370.633664,71.0211398 C370.633664,80.0751682 362.01835,87.0111526 345.853826,87.0111526 C337.528915,87.0111526 328.429595,83.7358266 322.234312,79.6898358" id="Fill-7" fill="#1A1A1A"></path>
                    <path d="M376.049761,61.7729039 C376.049761,45.7828911 389.408338,36.534912 404.411247,36.534912 C411.961747,36.534912 418.641036,39.039573 422.705399,42.8928977 L415.156189,53.1029235 C411.574542,50.6945956 408.476901,49.8275975 405.38055,49.8275975 C398.120454,49.8275975 393.085496,54.4515871 393.085496,61.7729039 C393.085496,69.0942206 398.022362,73.7182102 404.798452,73.7182102 C409.541715,73.7182102 413.413766,71.6952147 416.70501,69.6709349 L423.287497,80.0749113 C417.284527,84.9879002 409.541715,87.0108957 403.15283,87.0108957 C387.858227,87.0108957 376.049761,77.7629166 376.049761,61.7729039" id="Fill-9" fill="#1A1A1A"></path>
                    <path d="M432.381139,37.6909094 L446.03012,37.6909094 L447.288537,47.9009352 L447.675742,47.9009352 C452.322204,40.0029042 459.291897,36.534912 466.551993,36.534912 C471.003561,36.534912 473.036388,37.305577 475.746824,38.4615743 L472.455581,52.3322585 C469.551542,51.4665449 467.520006,50.9848794 464.033869,50.9848794 C458.517486,50.9848794 452.612608,53.8748728 449.02967,61.9655701 L449.02967,85.8548983 L432.381139,85.8548983 L432.381139,37.6909094 Z" id="Fill-11" fill="#1A1A1A"></path>
                    <path d="M483.002662,103.001807 L485.905409,90.4785025 C487.165117,90.8651194 488.326732,91.0565012 489.390256,91.0565012 C494.522015,91.0565012 497.134359,89.1298389 498.394066,86.2398454 L499.167186,84.1218013 L478.840206,37.6905241 L495.295134,37.6905241 L502.071224,56.1864823 C503.716846,60.8091874 505.073355,65.6258431 506.427282,70.8278314 L506.814487,70.8278314 C507.976103,65.9148425 509.524923,61.003138 510.976942,56.1864823 L516.78502,37.6905241 L532.465537,37.6905241 L514.268186,85.0851325 C509.137718,98.0888186 503.426442,103.965139 490.746764,103.965139 C487.745925,103.965139 485.229091,103.579806 483.002662,103.001807" id="Fill-13" fill="#1A1A1A"></path>
                    <path d="M571.566932,61.1946483 C571.566932,53.2966172 569.1469,50.0212913 564.403637,50.0212913 C561.791293,50.0212913 559.758466,50.9846225 557.435235,53.487999 L557.435235,71.2132923 C559.466771,72.9460039 561.791293,73.5252871 564.017722,73.5252871 C568.083376,73.5252871 571.566932,70.4426274 571.566932,61.1946483 M555.499209,80.6526532 L555.112004,80.6526532 L553.755496,85.8546414 L540.785414,85.8546414 L540.785414,18.8106463 L557.435235,18.8106463 L557.435235,34.4153266 L556.854427,41.3513109 L557.240342,41.3513109 C560.532876,38.2686512 564.984445,36.5346552 569.340502,36.5346552 C581.053458,36.5346552 588.603958,46.1679667 588.603958,60.9056489 C588.603958,77.5712779 578.535334,87.0119232 567.986575,87.0119232 C563.630517,87.0119232 559.274459,84.8913102 555.499209,80.6526532" id="Fill-15" fill="#1A1A1A"></path>
                    <path d="M621.510458,49.0577033 C626.040758,49.0577033 628.534359,51.4878667 629.235201,55.9924031 L612.324662,55.9924031 C613.628252,51.293916 616.765905,49.0577033 621.510458,49.0577033 M643.965775,59.8457278 C643.965775,46.9383747 636.222963,36.5343983 620.930941,36.5343983 C607.958278,36.5343983 595.567714,45.9750436 595.567714,61.7723901 C595.567714,77.7636872 607.378761,87.0116663 622.672074,87.0116663 C628.673753,87.0116663 636.222963,85.0862885 642.03104,81.4243456 L636.610168,71.5983679 C632.352202,73.5250302 628.866065,74.4883613 624.995304,74.4883613 C617.96624,74.4883613 613.723763,72.1943487 612.243348,66.7829965 L643.290747,66.7829965 C643.481769,65.6257147 643.965775,62.7357212 643.965775,59.8457278" id="Fill-17" fill="#1A1A1A"></path>
                    <g id="Group-21" transform="translate(0.000000, 0.887292)">
                        <mask id="mask-2" fill="white">
                            <use xlink:href="#path-1"></use>
                        </mask>
                        <g id="Clip-20"></g>
                        <path d="M26.5520763,52.649644 L15.3192552,41.4711493 L41.6866346,15.2312931 L52.9194558,26.4097878 C53.6719245,27.1586172 53.6719245,28.9298621 52.9194558,29.6774071 L29.8355759,52.649644 C29.084398,53.3984735 27.3032543,53.3984735 26.5520763,52.649644 Z M90.5699931,81.6716006 L79.6443547,70.798803 C80.1064195,69.3961928 80.3581028,67.9139473 80.3581028,66.3841774 C80.3581028,62.3908487 78.6827952,58.8586344 75.7477803,56.6391195 C70.2998039,51.442269 61.943917,51.4949311 56.5540214,56.7971058 C53.9907234,59.186167 52.5141811,62.4897507 52.4354494,66.1234358 C52.3528456,69.9009784 53.8332599,73.5860411 56.4959406,76.235844 C59.1160288,78.8445448 62.6318514,80.2818349 66.3954854,80.2805504 C67.923655,80.2805504 69.3421165,80.0750398 70.6728115,79.6691563 L81.4345331,90.3801143 L44.1428059,83.1692595 L40.6192391,59.9722453 L59.6503718,41.0344392 L83.2685948,44.2763696 L90.5699931,81.6716006 Z M65.5668664,67.2100733 C65.2016029,66.8478608 65.0802786,66.4920705 65.0789879,66.382893 C65.0789879,66.2762843 65.2016029,65.9217785 65.5668664,65.559566 C65.9992455,65.1279936 66.7904347,65.1267092 67.2253951,65.559566 C67.6590649,65.9911383 67.6590649,66.778501 67.2253951,67.2100733 C66.8601316,67.5722858 66.5026122,67.6943078 66.3941947,67.6955922 C66.287068,67.6943078 65.9308392,67.5722858 65.5668664,67.2100733 Z M89.1734732,32.1165616 L66.0121523,28.9953686 C66.0276405,28.7320581 66.0534542,28.4687476 66.0534542,28.2067215 C66.0534542,24.045131 64.503343,20.4975034 61.568328,17.9350425 L45.734219,2.1762293 C44.6319751,1.08060067 42.9579582,0.397277768 41.362673,0.397277768 C39.7673878,0.395993327 38.0907896,1.07931623 36.9885456,2.1762293 L1.87549264,37.1194614 C-0.625852578,39.6087091 -0.625852578,43.6572688 1.87549264,46.147801 L17.4811505,61.6766992 C20.5349084,64.7156879 24.7102705,66.1144447 28.8120637,65.9089341 L31.9587508,89.0494328 C32.1123422,91.4192275 33.8418585,93.4178185 36.5561665,94.318212 L36.7962337,94.3978474 L98.9529844,106.380403 C100.323691,106.761882 102.680479,106.922437 104.905618,104.70806 C106.009153,103.611147 106.693215,101.94651 106.694506,100.361509 L106.694506,99.6666266 L94.6421005,37.4277274 C94.3878358,34.6533336 91.9742571,32.295099 89.1734732,32.1165616 Z" id="Fill-19" stroke="#FFFFFF" fill="#1A1A1A" mask="url(#mask-2)"></path>
                    </g>
                </g>
            </g>
        </g>
    </g>
</svg>